<?xml version="1.0" encoding="UTF-8" standalone="no"?>
<!DOCTYPE svg PUBLIC "-//W3C//DTD SVG 1.1//EN"
 "http://www.w3.org/Graphics/SVG/1.1/DTD/svg11.dtd">
<!-- Generated by graphviz version 14.0.4 (20251115.1723)
 -->
<!-- Title: CallGraph Pages: 1 -->
<svg width="994pt" height="171pt"
 viewBox="0.00 0.00 994.00 171.00" xmlns="http://www.w3.org/2000/svg" xmlns:xlink="http://www.w3.org/1999/xlink">
<g id="graph0" class="graph" transform="scale(1 1) rotate(0) translate(4 167)">
<title>CallGraph</title>
<polygon fill="white" stroke="none" points="-4,4 -4,-167 990.25,-167 990.25,4 -4,4"/>
<!-- SGS_assignGrade -->
<g id="node1" class="node">
<title>SGS_assignGrade</title>
<path fill="none" stroke="black" d="M105.25,-163C105.25,-163 12,-163 12,-163 6,-163 0,-157 0,-151 0,-151 0,-139 0,-139 0,-133 6,-127 12,-127 12,-127 105.25,-127 105.25,-127 111.25,-127 117.25,-133 117.25,-139 117.25,-139 117.25,-151 117.25,-151 117.25,-157 111.25,-163 105.25,-163"/>
<text xml:space="preserve" text-anchor="middle" x="58.62" y="-147.5" font-family="Arial" font-size="10.00">StudentGradingSystem</text>
<text xml:space="preserve" text-anchor="middle" x="58.62" y="-135.5" font-family="Arial" font-size="10.00">assignGrade()</text>
</g>
<!-- Student_addGrade -->
<g id="node8" class="node">
<title>Student_addGrade</title>
<path fill="none" stroke="black" d="M78.62,-90C78.62,-90 38.62,-90 38.62,-90 32.62,-90 26.62,-84 26.62,-78 26.62,-78 26.62,-66 26.62,-66 26.62,-60 32.62,-54 38.62,-54 38.62,-54 78.62,-54 78.62,-54 84.62,-54 90.62,-60 90.62,-66 90.62,-66 90.62,-78 90.62,-78 90.62,-84 84.62,-90 78.62,-90"/>
<text xml:space="preserve" text-anchor="middle" x="58.62" y="-74.5" font-family="Arial" font-size="10.00">Student</text>
<text xml:space="preserve" text-anchor="middle" x="58.62" y="-62.5" font-family="Arial" font-size="10.00">addGrade()</text>
</g>
<!-- SGS_assignGrade&#45;&gt;Student_addGrade -->
<g id="edge1" class="edge">
<title>SGS_assignGrade&#45;&gt;Student_addGrade</title>
<path fill="none" stroke="black" d="M58.62,-126.81C58.62,-119.23 58.62,-110.1 58.62,-101.54"/>
<polygon fill="black" stroke="black" points="62.13,-101.54 58.63,-91.54 55.13,-101.54 62.13,-101.54"/>
</g>
<!-- SGS_calculateCourseAverage -->
<g id="node2" class="node">
<title>SGS_calculateCourseAverage</title>
<path fill="none" stroke="black" d="M251.88,-163C251.88,-163 147.38,-163 147.38,-163 141.38,-163 135.38,-157 135.38,-151 135.38,-151 135.38,-139 135.38,-139 135.38,-133 141.38,-127 147.38,-127 147.38,-127 251.88,-127 251.88,-127 257.88,-127 263.88,-133 263.88,-139 263.88,-139 263.88,-151 263.88,-151 263.88,-157 257.88,-163 251.88,-163"/>
<text xml:space="preserve" text-anchor="middle" x="199.62" y="-147.5" font-family="Arial" font-size="10.00">StudentGradingSystem</text>
<text xml:space="preserve" text-anchor="middle" x="199.62" y="-135.5" font-family="Arial" font-size="10.00">calculateCourseAverage()</text>
</g>
<!-- Student_getGrade -->
<g id="node9" class="node">
<title>Student_getGrade</title>
<path fill="none" stroke="black" d="M374.5,-90C374.5,-90 336.75,-90 336.75,-90 330.75,-90 324.75,-84 324.75,-78 324.75,-78 324.75,-66 324.75,-66 324.75,-60 330.75,-54 336.75,-54 336.75,-54 374.5,-54 374.5,-54 380.5,-54 386.5,-60 386.5,-66 386.5,-66 386.5,-78 386.5,-78 386.5,-84 380.5,-90 374.5,-90"/>
<text xml:space="preserve" text-anchor="middle" x="355.62" y="-74.5" font-family="Arial" font-size="10.00">Student</text>
<text xml:space="preserve" text-anchor="middle" x="355.62" y="-62.5" font-family="Arial" font-size="10.00">getGrade()</text>
</g>
<!-- SGS_calculateCourseAverage&#45;&gt;Student_getGrade -->
<g id="edge2" class="edge">
<title>SGS_calculateCourseAverage&#45;&gt;Student_getGrade</title>
<path fill="none" stroke="black" d="M237.79,-126.63C260.86,-116.13 290.3,-102.73 313.97,-91.96"/>
<polygon fill="black" stroke="black" points="315.38,-95.16 323.03,-87.84 312.48,-88.79 315.38,-95.16"/>
</g>
<!-- Course_getEnrolledStudents -->
<g id="node12" class="node">
<title>Course_getEnrolledStudents</title>
<path fill="none" stroke="black" d="M242.5,-90C242.5,-90 156.75,-90 156.75,-90 150.75,-90 144.75,-84 144.75,-78 144.75,-78 144.75,-66 144.75,-66 144.75,-60 150.75,-54 156.75,-54 156.75,-54 242.5,-54 242.5,-54 248.5,-54 254.5,-60 254.5,-66 254.5,-66 254.5,-78 254.5,-78 254.5,-84 248.5,-90 242.5,-90"/>
<text xml:space="preserve" text-anchor="middle" x="199.62" y="-74.5" font-family="Arial" font-size="10.00">Course</text>
<text xml:space="preserve" text-anchor="middle" x="199.62" y="-62.5" font-family="Arial" font-size="10.00">getEnrolledStudents()</text>
</g>
<!-- SGS_calculateCourseAverage&#45;&gt;Course_getEnrolledStudents -->
<g id="edge3" class="edge">
<title>SGS_calculateCourseAverage&#45;&gt;Course_getEnrolledStudents</title>
<path fill="none" stroke="black" d="M199.62,-126.81C199.62,-119.23 199.62,-110.1 199.62,-101.54"/>
<polygon fill="black" stroke="black" points="203.13,-101.54 199.63,-91.54 196.13,-101.54 203.13,-101.54"/>
</g>
<!-- SGS_enrollStudentToCourse -->
<g id="node3" class="node">
<title>SGS_enrollStudentToCourse</title>
<path fill="none" stroke="black" d="M704.12,-163C704.12,-163 607.12,-163 607.12,-163 601.12,-163 595.12,-157 595.12,-151 595.12,-151 595.12,-139 595.12,-139 595.12,-133 601.12,-127 607.12,-127 607.12,-127 704.12,-127 704.12,-127 710.12,-127 716.12,-133 716.12,-139 716.12,-139 716.12,-151 716.12,-151 716.12,-157 710.12,-163 704.12,-163"/>
<text xml:space="preserve" text-anchor="middle" x="655.62" y="-147.5" font-family="Arial" font-size="10.00">StudentGradingSystem</text>
<text xml:space="preserve" text-anchor="middle" x="655.62" y="-135.5" font-family="Arial" font-size="10.00">enrollStudentToCourse()</text>
</g>
<!-- Course_addStudent -->
<g id="node11" class="node">
<title>Course_addStudent</title>
<path fill="none" stroke="black" d="M679.38,-90C679.38,-90 631.88,-90 631.88,-90 625.88,-90 619.88,-84 619.88,-78 619.88,-78 619.88,-66 619.88,-66 619.88,-60 625.88,-54 631.88,-54 631.88,-54 679.38,-54 679.38,-54 685.38,-54 691.38,-60 691.38,-66 691.38,-66 691.38,-78 691.38,-78 691.38,-84 685.38,-90 679.38,-90"/>
<text xml:space="preserve" text-anchor="middle" x="655.62" y="-74.5" font-family="Arial" font-size="10.00">Course</text>
<text xml:space="preserve" text-anchor="middle" x="655.62" y="-62.5" font-family="Arial" font-size="10.00">addStudent()</text>
</g>
<!-- SGS_enrollStudentToCourse&#45;&gt;Course_addStudent -->
<g id="edge4" class="edge">
<title>SGS_enrollStudentToCourse&#45;&gt;Course_addStudent</title>
<path fill="none" stroke="black" d="M655.62,-126.81C655.62,-119.23 655.62,-110.1 655.62,-101.54"/>
<polygon fill="black" stroke="black" points="659.13,-101.54 655.63,-91.54 652.13,-101.54 659.13,-101.54"/>
</g>
<!-- SGS_evaluateStudentPerformance -->
<g id="node4" class="node">
<title>SGS_evaluateStudentPerformance</title>
<path fill="none" stroke="black" d="M417.62,-163C417.62,-163 293.62,-163 293.62,-163 287.62,-163 281.62,-157 281.62,-151 281.62,-151 281.62,-139 281.62,-139 281.62,-133 287.62,-127 293.62,-127 293.62,-127 417.62,-127 417.62,-127 423.62,-127 429.62,-133 429.62,-139 429.62,-139 429.62,-151 429.62,-151 429.62,-157 423.62,-163 417.62,-163"/>
<text xml:space="preserve" text-anchor="middle" x="355.62" y="-147.5" font-family="Arial" font-size="10.00">StudentGradingSystem</text>
<text xml:space="preserve" text-anchor="middle" x="355.62" y="-135.5" font-family="Arial" font-size="10.00">evaluateStudentPerformance()</text>
</g>
<!-- SGS_evaluateStudentPerformance&#45;&gt;Student_getGrade -->
<g id="edge5" class="edge">
<title>SGS_evaluateStudentPerformance&#45;&gt;Student_getGrade</title>
<path fill="none" stroke="black" d="M355.62,-126.81C355.62,-119.23 355.62,-110.1 355.62,-101.54"/>
<polygon fill="black" stroke="black" points="359.13,-101.54 355.63,-91.54 352.13,-101.54 359.13,-101.54"/>
</g>
<!-- SGS_determineExamEligibility -->
<g id="node5" class="node">
<title>SGS_determineExamEligibility</title>
<path fill="none" stroke="black" d="M565.25,-163C565.25,-163 460,-163 460,-163 454,-163 448,-157 448,-151 448,-151 448,-139 448,-139 448,-133 454,-127 460,-127 460,-127 565.25,-127 565.25,-127 571.25,-127 577.25,-133 577.25,-139 577.25,-139 577.25,-151 577.25,-151 577.25,-157 571.25,-163 565.25,-163"/>
<text xml:space="preserve" text-anchor="middle" x="512.62" y="-147.5" font-family="Arial" font-size="10.00">StudentGradingSystem</text>
<text xml:space="preserve" text-anchor="middle" x="512.62" y="-135.5" font-family="Arial" font-size="10.00">determineExamEligibility()</text>
</g>
<!-- SGS_determineExamEligibility&#45;&gt;Student_getGrade -->
<g id="edge6" class="edge">
<title>SGS_determineExamEligibility&#45;&gt;Student_getGrade</title>
<path fill="none" stroke="black" d="M474.22,-126.63C450.81,-116.05 420.9,-102.52 396.98,-91.7"/>
<polygon fill="black" stroke="black" points="398.72,-88.65 388.17,-87.72 395.84,-95.03 398.72,-88.65"/>
</g>
<!-- SGS_addStudent -->
<g id="node6" class="node">
<title>SGS_addStudent</title>
<path fill="none" stroke="black" d="M839.25,-163C839.25,-163 746,-163 746,-163 740,-163 734,-157 734,-151 734,-151 734,-139 734,-139 734,-133 740,-127 746,-127 746,-127 839.25,-127 839.25,-127 845.25,-127 851.25,-133 851.25,-139 851.25,-139 851.25,-151 851.25,-151 851.25,-157 845.25,-163 839.25,-163"/>
<text xml:space="preserve" text-anchor="middle" x="792.62" y="-147.5" font-family="Arial" font-size="10.00">StudentGradingSystem</text>
<text xml:space="preserve" text-anchor="middle" x="792.62" y="-135.5" font-family="Arial" font-size="10.00">addStudent()</text>
</g>
<!-- Student_constructor -->
<g id="node10" class="node">
<title>Student_constructor</title>
<path fill="none" stroke="black" d="M813,-90C813,-90 772.25,-90 772.25,-90 766.25,-90 760.25,-84 760.25,-78 760.25,-78 760.25,-66 760.25,-66 760.25,-60 766.25,-54 772.25,-54 772.25,-54 813,-54 813,-54 819,-54 825,-60 825,-66 825,-66 825,-78 825,-78 825,-84 819,-90 813,-90"/>
<text xml:space="preserve" text-anchor="middle" x="792.62" y="-74.5" font-family="Arial" font-size="10.00">Student</text>
<text xml:space="preserve" text-anchor="middle" x="792.62" y="-62.5" font-family="Arial" font-size="10.00">constructor</text>
</g>
<!-- SGS_addStudent&#45;&gt;Student_constructor -->
<g id="edge7" class="edge">
<title>SGS_addStudent&#45;&gt;Student_constructor</title>
<path fill="none" stroke="black" d="M792.62,-126.81C792.62,-119.23 792.62,-110.1 792.62,-101.54"/>
<polygon fill="black" stroke="black" points="796.13,-101.54 792.63,-91.54 789.13,-101.54 796.13,-101.54"/>
</g>
<!-- SGS_addCourse -->
<g id="node7" class="node">
<title>SGS_addCourse</title>
<path fill="none" stroke="black" d="M974.25,-163C974.25,-163 881,-163 881,-163 875,-163 869,-157 869,-151 869,-151 869,-139 869,-139 869,-133 875,-127 881,-127 881,-127 974.25,-127 974.25,-127 980.25,-127 986.25,-133 986.25,-139 986.25,-139 986.25,-151 986.25,-151 986.25,-157 980.25,-163 974.25,-163"/>
<text xml:space="preserve" text-anchor="middle" x="927.62" y="-147.5" font-family="Arial" font-size="10.00">StudentGradingSystem</text>
<text xml:space="preserve" text-anchor="middle" x="927.62" y="-135.5" font-family="Arial" font-size="10.00">addCourse()</text>
</g>
<!-- Course_constructor -->
<g id="node13" class="node">
<title>Course_constructor</title>
<path fill="none" stroke="black" d="M948,-90C948,-90 907.25,-90 907.25,-90 901.25,-90 895.25,-84 895.25,-78 895.25,-78 895.25,-66 895.25,-66 895.25,-60 901.25,-54 907.25,-54 907.25,-54 948,-54 948,-54 954,-54 960,-60 960,-66 960,-66 960,-78 960,-78 960,-84 954,-90 948,-90"/>
<text xml:space="preserve" text-anchor="middle" x="927.62" y="-74.5" font-family="Arial" font-size="10.00">Course</text>
<text xml:space="preserve" text-anchor="middle" x="927.62" y="-62.5" font-family="Arial" font-size="10.00">constructor</text>
</g>
<!-- SGS_addCourse&#45;&gt;Course_constructor -->
<g id="edge8" class="edge">
<title>SGS_addCourse&#45;&gt;Course_constructor</title>
<path fill="none" stroke="black" d="M927.62,-126.81C927.62,-119.23 927.62,-110.1 927.62,-101.54"/>
<polygon fill="black" stroke="black" points="931.13,-101.54 927.63,-91.54 924.13,-101.54 931.13,-101.54"/>
</g>
<!-- StudentGradingSystem -->
<g id="node14" class="node">
<title>StudentGradingSystem</title>
<path fill="none" stroke="black" d="M405.25,-36C405.25,-36 312,-36 312,-36 306,-36 300,-30 300,-24 300,-24 300,-12 300,-12 300,-6 306,0 312,0 312,0 405.25,0 405.25,0 411.25,0 417.25,-6 417.25,-12 417.25,-12 417.25,-24 417.25,-24 417.25,-30 411.25,-36 405.25,-36"/>
<text xml:space="preserve" text-anchor="middle" x="358.62" y="-14.5" font-family="Arial" font-size="10.00">StudentGradingSystem</text>
</g>
<!-- Student -->
<g id="node15" class="node">
<title>Student</title>
<path fill="none" stroke="black" d="M496.62,-36C496.62,-36 466.62,-36 466.62,-36 460.62,-36 454.62,-30 454.62,-24 454.62,-24 454.62,-12 454.62,-12 454.62,-6 460.62,0 466.62,0 466.62,0 496.62,0 496.62,0 502.62,0 508.62,-6 508.62,-12 508.62,-12 508.62,-24 508.62,-24 508.62,-30 502.62,-36 496.62,-36"/>
<text xml:space="preserve" text-anchor="middle" x="481.62" y="-14.5" font-family="Arial" font-size="10.00">Student</text>
</g>
<!-- StudentGradingSystem&#45;&gt;Student -->
<g id="edge9" class="edge">
<title>StudentGradingSystem&#45;&gt;Student</title>
<path fill="none" stroke="black" stroke-dasharray="5,2" d="M417.6,-18C426.22,-18 434.9,-18 442.97,-18"/>
<polygon fill="black" stroke="black" points="442.77,-21.5 452.77,-18 442.77,-14.5 442.77,-21.5"/>
<text xml:space="preserve" text-anchor="middle" x="435.94" y="-22.95" font-family="Arial" font-size="9.00">uses</text>
</g>
<!-- Course -->
<g id="node16" class="node">
<title>Course</title>
<path fill="none" stroke="black" d="M631.62,-36C631.62,-36 601.62,-36 601.62,-36 595.62,-36 589.62,-30 589.62,-24 589.62,-24 589.62,-12 589.62,-12 589.62,-6 595.62,0 601.62,0 601.62,0 631.62,0 631.62,0 637.62,0 643.62,-6 643.62,-12 643.62,-12 643.62,-24 643.62,-24 643.62,-30 637.62,-36 631.62,-36"/>
<text xml:space="preserve" text-anchor="middle" x="616.62" y="-14.5" font-family="Arial" font-size="10.00">Course</text>
</g>
<!-- StudentGradingSystem&#45;&gt;Course -->
<g id="edge10" class="edge">
<title>StudentGradingSystem&#45;&gt;Course</title>
<path fill="none" stroke="black" stroke-dasharray="5,2" d="M385.89,-36.34C416.49,-54.67 467.82,-78.75 513.38,-68.25 536.59,-62.9 560.64,-51.59 579.67,-41.06"/>
<polygon fill="black" stroke="black" points="581.16,-44.24 588.11,-36.24 577.69,-38.16 581.16,-44.24"/>
<text xml:space="preserve" text-anchor="middle" x="503.62" y="-68.7" font-family="Arial" font-size="9.00">uses</text>
</g>
<!-- Student&#45;&gt;Course -->
<g id="edge11" class="edge">
<title>Student&#45;&gt;Course</title>
<path fill="none" stroke="black" stroke-dasharray="5,2" d="M508.94,-18C528.8,-18 555.94,-18 578.01,-18"/>
<polygon fill="black" stroke="black" points="577.83,-21.5 587.83,-18 577.83,-14.5 577.83,-21.5"/>
<text xml:space="preserve" text-anchor="middle" x="549.12" y="-22.95" font-family="Arial" font-size="9.00">associated with</text>
</g>
</g>
</svg>
